<svg width="1505" height="864" xmlns="http://www.w3.org/2000/svg"><g><path d="M-19.650405161082745,-39.09801967442036L-75.63812423497438,51.25642231665552L117.02613894827664,119.45676933042705Z" fill="#f5f5f5" stroke="#f5f5f5" fill-opacity="1" stroke-opacity="1"/><path d="M-19.650405161082745,-39.09801967442036L117.02613894827664,119.45676933042705L95.07532789371908,-78.75262479297817Z" fill="#f4f4f4" stroke="#f4f4f4" fill-opacity="1" stroke-opacity="1"/><path d="M95.07532789371908,-78.75262479297817L117.02613894827664,119.45676933042705L201.1643129400909,16.655582506209612Z" fill="#f0f0f0" stroke="#f0f0f0" fill-opacity="1" stroke-opacity="1"/><path d="M95.07532789371908,-78.75262479297817L201.1643129400909,16.655582506209612L176.65992898866534,-86.73905183561146Z" fill="#f0f0f0" stroke="#f0f0f0" fill-opacity="1" stroke-opacity="1"/><path d="M176.65992898866534,-86.73905183561146L201.1643129400909,16.655582506209612L400.0256984587759,-99.27341370843351Z" fill="#ebebeb" stroke="#ebebeb" fill-opacity="1" stroke-opacity="1"/><path d="M400.0256984587759,-99.27341370843351L201.1643129400909,16.655582506209612L331.8958759121597,100.3854282014072Z" fill="#e7e7e7" stroke="#e7e7e7" fill-opacity="1" stroke-opacity="1"/><path d="M400.0256984587759,-99.27341370843351L331.8958759121597,100.3854282014072L504.5704824104905,-79.02325943112373Z" fill="#e3e3e3" stroke="#e3e3e3" fill-opacity="1" stroke-opacity="1"/><path d="M400.0256984587759,-99.27341370843351L504.5704824104905,-79.02325943112373L703.4539299085736,-102.1319501940161Z" fill="#dbdbdb" stroke="#dbdbdb" fill-opacity="1" stroke-opacity="1"/><path d="M400.0256984587759,-99.27341370843351L703.4539299085736,-102.1319501940161L1260.1290972344577,-132.19741685315967Z" fill="#c5c5c5" stroke="#c5c5c5" fill-opacity="1" stroke-opacity="1"/><path d="M504.5704824104905,-79.02325943112373L331.8958759121597,100.3854282014072L569.9191515985876,78.15854027867317Z" fill="#dedede" stroke="#dedede" fill-opacity="1" stroke-opacity="1"/><path d="M504.5704824104905,-79.02325943112373L569.9191515985876,78.15854027867317L703.4539299085736,-102.1319501940161Z" fill="#d6d6d6" stroke="#d6d6d6" fill-opacity="1" stroke-opacity="1"/><path d="M703.4539299085736,-102.1319501940161L569.9191515985876,78.15854027867317L667.3330278787762,126.89555662684143Z" fill="#cfcfcf" stroke="#cfcfcf" fill-opacity="1" stroke-opacity="1"/><path d="M703.4539299085736,-102.1319501940161L667.3330278787762,126.89555662684143L776.2410669587553,-41.8797745462507Z" fill="#cbcbcb" stroke="#cbcbcb" fill-opacity="1" stroke-opacity="1"/><path d="M703.4539299085736,-102.1319501940161L776.2410669587553,-41.8797745462507L1074.7351918090135,-78.75730063766241Z" fill="#bfbfbf" stroke="#bfbfbf" fill-opacity="1" stroke-opacity="1"/><path d="M703.4539299085736,-102.1319501940161L1074.7351918090135,-78.75730063766241L1260.1290972344577,-132.19741685315967Z" fill="#b0b0b0" stroke="#b0b0b0" fill-opacity="1" stroke-opacity="1"/><path d="M776.2410669587553,-41.8797745462507L667.3330278787762,126.89555662684143L857.20792084001,134.12718946114182Z" fill="#c2c2c2" stroke="#c2c2c2" fill-opacity="1" stroke-opacity="1"/><path d="M776.2410669587553,-41.8797745462507L857.20792084001,134.12718946114182L940.8323173038661,92.38625627942383Z" fill="#bbbbbb" stroke="#bbbbbb" fill-opacity="1" stroke-opacity="1"/><path d="M776.2410669587553,-41.8797745462507L940.8323173038661,92.38625627942383L1022.0360676012933,-31.240688106045127Z" fill="#b9b9b9" stroke="#b9b9b9" fill-opacity="1" stroke-opacity="1"/><path d="M776.2410669587553,-41.8797745462507L1022.0360676012933,-31.240688106045127L1074.7351918090135,-78.75730063766241Z" fill="#b5b5b5" stroke="#b5b5b5" fill-opacity="1" stroke-opacity="1"/><path d="M1022.0360676012933,-31.240688106045127L940.8323173038661,92.38625627942383L1184.099889015779,134.8159222304821Z" fill="#aaaaaa" stroke="#aaaaaa" fill-opacity="1" stroke-opacity="1"/><path d="M1022.0360676012933,-31.240688106045127L1184.099889015779,134.8159222304821L1074.7351918090135,-78.75730063766241Z" fill="#a9a9a9" stroke="#a9a9a9" fill-opacity="1" stroke-opacity="1"/><path d="M1074.7351918090135,-78.75730063766241L1184.099889015779,134.8159222304821L1260.1290972344577,-132.19741685315967Z" fill="#a2a2a2" stroke="#a2a2a2" fill-opacity="1" stroke-opacity="1"/><path d="M1260.1290972344577,-132.19741685315967L1184.099889015779,134.8159222304821L1228.8619646430016,131.99664009734988Z" fill="#9b9b9b" stroke="#9b9b9b" fill-opacity="1" stroke-opacity="1"/><path d="M1260.1290972344577,-132.19741685315967L1228.8619646430016,131.99664009734988L1422.870897296816,74.96345425955951Z" fill="#959595" stroke="#959595" fill-opacity="1" stroke-opacity="1"/><path d="M1260.1290972344577,-132.19741685315967L1422.870897296816,74.96345425955951L1449.6441420447081,-24.85093985684216Z" fill="#909090" stroke="#909090" fill-opacity="1" stroke-opacity="1"/><path d="M1260.1290972344577,-132.19741685315967L1449.6441420447081,-24.85093985684216L1529.9200275354087,-121.47633290849626Z" fill="#8c8c8c" stroke="#8c8c8c" fill-opacity="1" stroke-opacity="1"/><path d="M1449.6441420447081,-24.85093985684216L1422.870897296816,74.96345425955951L1521.9589436240494,95.39623056538403Z" fill="#858585" stroke="#858585" fill-opacity="1" stroke-opacity="1"/><path d="M1449.6441420447081,-24.85093985684216L1521.9589436240494,95.39623056538403L1529.9200275354087,-121.47633290849626Z" fill="#858585" stroke="#858585" fill-opacity="1" stroke-opacity="1"/><path d="M1529.9200275354087,-121.47633290849626L1521.9589436240494,95.39623056538403L1682.8583425842226,-86.94519407115877Z" fill="#808080" stroke="#808080" fill-opacity="1" stroke-opacity="1"/><path d="M1682.8583425842226,-86.94519407115877L1521.9589436240494,95.39623056538403L1705.2075280901045,87.11579209193587Z" fill="#7e7e7e" stroke="#7e7e7e" fill-opacity="1" stroke-opacity="1"/><path d="M1682.8583425842226,-86.94519407115877L1705.2075280901045,87.11579209193587L1739.5290003251284,267.2063641157001Z" fill="#7b7b7b" stroke="#7b7b7b" fill-opacity="1" stroke-opacity="1"/><path d="M-75.63812423497438,51.25642231665552L-99.95638657361269,200.81486388109624L117.02613894827664,119.45676933042705Z" fill="#f2f2f2" stroke="#f2f2f2" fill-opacity="1" stroke-opacity="1"/><path d="M117.02613894827664,119.45676933042705L-99.95638657361269,200.81486388109624L86.65949838235974,267.5611084420234Z" fill="#ececec" stroke="#ececec" fill-opacity="1" stroke-opacity="1"/><path d="M117.02613894827664,119.45676933042705L86.65949838235974,267.5611084420234L242.77405047789216,198.77206088975072Z" fill="#e6e6e6" stroke="#e6e6e6" fill-opacity="1" stroke-opacity="1"/><path d="M117.02613894827664,119.45676933042705L242.77405047789216,198.77206088975072L201.1643129400909,16.655582506209612Z" fill="#e8e8e8" stroke="#e8e8e8" fill-opacity="1" stroke-opacity="1"/><path d="M201.1643129400909,16.655582506209612L242.77405047789216,198.77206088975072L331.8958759121597,100.3854282014072Z" fill="#e5e5e5" stroke="#e5e5e5" fill-opacity="1" stroke-opacity="1"/><path d="M331.8958759121597,100.3854282014072L242.77405047789216,198.77206088975072L411.9423256907612,266.96399979293346Z" fill="#dddddd" stroke="#dddddd" fill-opacity="1" stroke-opacity="1"/><path d="M331.8958759121597,100.3854282014072L411.9423256907612,266.96399979293346L528.7762751989067,245.60463820584118Z" fill="#d8d8d8" stroke="#d8d8d8" fill-opacity="1" stroke-opacity="1"/><path d="M331.8958759121597,100.3854282014072L528.7762751989067,245.60463820584118L569.9191515985876,78.15854027867317Z" fill="#d8d8d8" stroke="#d8d8d8" fill-opacity="1" stroke-opacity="1"/><path d="M569.9191515985876,78.15854027867317L528.7762751989067,245.60463820584118L667.3330278787762,126.89555662684143Z" fill="#cecece" stroke="#cecece" fill-opacity="1" stroke-opacity="1"/><path d="M667.3330278787762,126.89555662684143L528.7762751989067,245.60463820584118L646.9899010006338,322.3990313988179Z" fill="#c8c8c8" stroke="#c8c8c8" fill-opacity="1" stroke-opacity="1"/><path d="M667.3330278787762,126.89555662684143L646.9899010006338,322.3990313988179L731.9009547214955,181.6193963214755Z" fill="#c3c3c3" stroke="#c3c3c3" fill-opacity="1" stroke-opacity="1"/><path d="M667.3330278787762,126.89555662684143L731.9009547214955,181.6193963214755L857.20792084001,134.12718946114182Z" fill="#c0c0c0" stroke="#c0c0c0" fill-opacity="1" stroke-opacity="1"/><path d="M857.20792084001,134.12718946114182L731.9009547214955,181.6193963214755L870.2292467001826,256.99189357459545Z" fill="#b8b8b8" stroke="#b8b8b8" fill-opacity="1" stroke-opacity="1"/><path d="M857.20792084001,134.12718946114182L870.2292467001826,256.99189357459545L924.1237015463412,202.70304568111897Z" fill="#b1b1b1" stroke="#b1b1b1" fill-opacity="1" stroke-opacity="1"/><path d="M857.20792084001,134.12718946114182L924.1237015463412,202.70304568111897L940.8323173038661,92.38625627942383Z" fill="#b2b2b2" stroke="#b2b2b2" fill-opacity="1" stroke-opacity="1"/><path d="M940.8323173038661,92.38625627942383L924.1237015463412,202.70304568111897L1065.5188821908087,284.3712064996362Z" fill="#aaaaaa" stroke="#aaaaaa" fill-opacity="1" stroke-opacity="1"/><path d="M940.8323173038661,92.38625627942383L1065.5188821908087,284.3712064996362L1184.099889015779,134.8159222304821Z" fill="#a3a3a3" stroke="#a3a3a3" fill-opacity="1" stroke-opacity="1"/><path d="M1184.099889015779,134.8159222304821L1065.5188821908087,284.3712064996362L1225.2949753962457,264.00792793370783Z" fill="#979797" stroke="#979797" fill-opacity="1" stroke-opacity="1"/><path d="M1184.099889015779,134.8159222304821L1225.2949753962457,264.00792793370783L1228.8619646430016,131.99664009734988Z" fill="#959595" stroke="#959595" fill-opacity="1" stroke-opacity="1"/><path d="M1228.8619646430016,131.99664009734988L1225.2949753962457,264.00792793370783L1402.0130292791873,210.04923211410642Z" fill="#8d8d8d" stroke="#8d8d8d" fill-opacity="1" stroke-opacity="1"/><path d="M1228.8619646430016,131.99664009734988L1402.0130292791873,210.04923211410642L1422.870897296816,74.96345425955951Z" fill="#8b8b8b" stroke="#8b8b8b" fill-opacity="1" stroke-opacity="1"/><path d="M1422.870897296816,74.96345425955951L1402.0130292791873,210.04923211410642L1521.9589436240494,95.39623056538403Z" fill="#838383" stroke="#838383" fill-opacity="1" stroke-opacity="1"/><path d="M1521.9589436240494,95.39623056538403L1402.0130292791873,210.04923211410642L1600.251286039129,235.27118160389364Z" fill="#7a7a7a" stroke="#7a7a7a" fill-opacity="1" stroke-opacity="1"/><path d="M1521.9589436240494,95.39623056538403L1600.251286039129,235.27118160389364L1705.2075280901045,87.11579209193587Z" fill="#787878" stroke="#787878" fill-opacity="1" stroke-opacity="1"/><path d="M1705.2075280901045,87.11579209193587L1600.251286039129,235.27118160389364L1739.5290003251284,267.2063641157001Z" fill="#767676" stroke="#767676" fill-opacity="1" stroke-opacity="1"/><path d="M-99.95638657361269,200.81486388109624L-118.23026304133236,526.243761414662L-67.4432528950274,334.76330844685435Z" fill="#e2e2e2" stroke="#e2e2e2" fill-opacity="1" stroke-opacity="1"/><path d="M-99.95638657361269,200.81486388109624L-67.4432528950274,334.76330844685435L86.65949838235974,267.5611084420234Z" fill="#ebebeb" stroke="#ebebeb" fill-opacity="1" stroke-opacity="1"/><path d="M86.65949838235974,267.5611084420234L-67.4432528950274,334.76330844685435L75.33754371106625,416.941833011806Z" fill="#dedede" stroke="#dedede" fill-opacity="1" stroke-opacity="1"/><path d="M86.65949838235974,267.5611084420234L75.33754371106625,416.941833011806L177.0646658912301,330.4090956877917Z" fill="#dadada" stroke="#dadada" fill-opacity="1" stroke-opacity="1"/><path d="M86.65949838235974,267.5611084420234L177.0646658912301,330.4090956877917L242.77405047789216,198.77206088975072Z" fill="#e1e1e1" stroke="#e1e1e1" fill-opacity="1" stroke-opacity="1"/><path d="M242.77405047789216,198.77206088975072L177.0646658912301,330.4090956877917L354.69133749604225,413.59551038593054Z" fill="#d7d7d7" stroke="#d7d7d7" fill-opacity="1" stroke-opacity="1"/><path d="M242.77405047789216,198.77206088975072L354.69133749604225,413.59551038593054L411.9423256907612,266.96399979293346Z" fill="#d7d7d7" stroke="#d7d7d7" fill-opacity="1" stroke-opacity="1"/><path d="M411.9423256907612,266.96399979293346L354.69133749604225,413.59551038593054L541.9658709783107,318.8498092163354Z" fill="#cacaca" stroke="#cacaca" fill-opacity="1" stroke-opacity="1"/><path d="M411.9423256907612,266.96399979293346L541.9658709783107,318.8498092163354L528.7762751989067,245.60463820584118Z" fill="#d0d0d0" stroke="#d0d0d0" fill-opacity="1" stroke-opacity="1"/><path d="M528.7762751989067,245.60463820584118L541.9658709783107,318.8498092163354L646.9899010006338,322.3990313988179Z" fill="#c7c7c7" stroke="#c7c7c7" fill-opacity="1" stroke-opacity="1"/><path d="M731.9009547214955,181.6193963214755L646.9899010006338,322.3990313988179L827.7228567190468,330.39066379889846Z" fill="#bbbbbb" stroke="#bbbbbb" fill-opacity="1" stroke-opacity="1"/><path d="M731.9009547214955,181.6193963214755L827.7228567190468,330.39066379889846L870.2292467001826,256.99189357459545Z" fill="#b5b5b5" stroke="#b5b5b5" fill-opacity="1" stroke-opacity="1"/><path d="M870.2292467001826,256.99189357459545L827.7228567190468,330.39066379889846L994.2267591040581,337.3444272670895Z" fill="#a8a8a8" stroke="#a8a8a8" fill-opacity="1" stroke-opacity="1"/><path d="M870.2292467001826,256.99189357459545L994.2267591040581,337.3444272670895L924.1237015463412,202.70304568111897Z" fill="#aaaaaa" stroke="#aaaaaa" fill-opacity="1" stroke-opacity="1"/><path d="M924.1237015463412,202.70304568111897L994.2267591040581,337.3444272670895L1065.5188821908087,284.3712064996362Z" fill="#a4a4a4" stroke="#a4a4a4" fill-opacity="1" stroke-opacity="1"/><path d="M1065.5188821908087,284.3712064996362L994.2267591040581,337.3444272670895L1145.5869794357568,359.21943398192525Z" fill="#959595" stroke="#959595" fill-opacity="1" stroke-opacity="1"/><path d="M1065.5188821908087,284.3712064996362L1145.5869794357568,359.21943398192525L1225.2949753962457,264.00792793370783Z" fill="#939393" stroke="#939393" fill-opacity="1" stroke-opacity="1"/><path d="M1225.2949753962457,264.00792793370783L1145.5869794357568,359.21943398192525L1275.5360050220042,317.3172147665173Z" fill="#8b8b8b" stroke="#8b8b8b" fill-opacity="1" stroke-opacity="1"/><path d="M1225.2949753962457,264.00792793370783L1275.5360050220042,317.3172147665173L1402.0130292791873,210.04923211410642Z" fill="#898989" stroke="#898989" fill-opacity="1" stroke-opacity="1"/><path d="M1402.0130292791873,210.04923211410642L1275.5360050220042,317.3172147665173L1467.341240812093,404.9190212599933Z" fill="#7c7c7c" stroke="#7c7c7c" fill-opacity="1" stroke-opacity="1"/><path d="M1402.0130292791873,210.04923211410642L1467.341240812093,404.9190212599933L1567.885479759425,338.9319092966616Z" fill="#727272" stroke="#727272" fill-opacity="1" stroke-opacity="1"/><path d="M1402.0130292791873,210.04923211410642L1567.885479759425,338.9319092966616L1600.251286039129,235.27118160389364Z" fill="#757575" stroke="#757575" fill-opacity="1" stroke-opacity="1"/><path d="M1600.251286039129,235.27118160389364L1567.885479759425,338.9319092966616L1707.076862063259,332.87056404165924Z" fill="#6e6e6e" stroke="#6e6e6e" fill-opacity="1" stroke-opacity="1"/><path d="M1600.251286039129,235.27118160389364L1707.076862063259,332.87056404165924L1739.5290003251284,267.2063641157001Z" fill="#717171" stroke="#717171" fill-opacity="1" stroke-opacity="1"/><path d="M1739.5290003251284,267.2063641157001L1707.076862063259,332.87056404165924L1703.8043199665844,566.0717430431396Z" fill="#5e5e5e" stroke="#5e5e5e" fill-opacity="1" stroke-opacity="1"/><path d="M1739.5290003251284,267.2063641157001L1703.8043199665844,566.0717430431396L1721.6693924367428,677.9901152383536Z" fill="#494949" stroke="#494949" fill-opacity="1" stroke-opacity="1"/><path d="M1739.5290003251284,267.2063641157001L1721.6693924367428,677.9901152383536L1722.7400377672166,788.2170074991882Z" fill="#3b3b3b" stroke="#3b3b3b" fill-opacity="1" stroke-opacity="1"/><path d="M-67.4432528950274,334.76330844685435L-118.23026304133236,526.243761414662L75.33754371106625,416.941833011806Z" fill="#d1d1d1" stroke="#d1d1d1" fill-opacity="1" stroke-opacity="1"/><path d="M75.33754371106625,416.941833011806L-118.23026304133236,526.243761414662L118.2426106184721,506.56843822449446Z" fill="#c3c3c3" stroke="#c3c3c3" fill-opacity="1" stroke-opacity="1"/><path d="M75.33754371106625,416.941833011806L118.2426106184721,506.56843822449446L177.0646658912301,330.4090956877917Z" fill="#cacaca" stroke="#cacaca" fill-opacity="1" stroke-opacity="1"/><path d="M177.0646658912301,330.4090956877917L118.2426106184721,506.56843822449446L354.69133749604225,413.59551038593054Z" fill="#c6c6c6" stroke="#c6c6c6" fill-opacity="1" stroke-opacity="1"/><path d="M354.69133749604225,413.59551038593054L118.2426106184721,506.56843822449446L263.42084085568786,570.4382376652211Z" fill="#b5b5b5" stroke="#b5b5b5" fill-opacity="1" stroke-opacity="1"/><path d="M354.69133749604225,413.59551038593054L263.42084085568786,570.4382376652211L404.1089573968202,489.9319704249501Z" fill="#b1b1b1" stroke="#b1b1b1" fill-opacity="1" stroke-opacity="1"/><path d="M354.69133749604225,413.59551038593054L404.1089573968202,489.9319704249501L541.9658709783107,318.8498092163354Z" fill="#bdbdbd" stroke="#bdbdbd" fill-opacity="1" stroke-opacity="1"/><path d="M541.9658709783107,318.8498092163354L404.1089573968202,489.9319704249501L545.7163180969656,572.0613492652774Z" fill="#afafaf" stroke="#afafaf" fill-opacity="1" stroke-opacity="1"/><path d="M541.9658709783107,318.8498092163354L545.7163180969656,572.0613492652774L646.9899010006338,322.3990313988179Z" fill="#b3b3b3" stroke="#b3b3b3" fill-opacity="1" stroke-opacity="1"/><path d="M646.9899010006338,322.3990313988179L545.7163180969656,572.0613492652774L703.725135633722,544.0242929197848Z" fill="#a0a0a0" stroke="#a0a0a0" fill-opacity="1" stroke-opacity="1"/><path d="M646.9899010006338,322.3990313988179L703.725135633722,544.0242929197848L813.8586796168238,469.85643862746656Z" fill="#9f9f9f" stroke="#9f9f9f" fill-opacity="1" stroke-opacity="1"/><path d="M646.9899010006338,322.3990313988179L813.8586796168238,469.85643862746656L827.7228567190468,330.39066379889846Z" fill="#a8a8a8" stroke="#a8a8a8" fill-opacity="1" stroke-opacity="1"/><path d="M827.7228567190468,330.39066379889846L813.8586796168238,469.85643862746656L994.2267591040581,337.3444272670895Z" fill="#9c9c9c" stroke="#9c9c9c" fill-opacity="1" stroke-opacity="1"/><path d="M994.2267591040581,337.3444272670895L813.8586796168238,469.85643862746656L981.5270299091935,493.74005396850407Z" fill="#8e8e8e" stroke="#8e8e8e" fill-opacity="1" stroke-opacity="1"/><path d="M994.2267591040581,337.3444272670895L981.5270299091935,493.74005396850407L1100.3941897954792,519.363538781181Z" fill="#828282" stroke="#828282" fill-opacity="1" stroke-opacity="1"/><path d="M994.2267591040581,337.3444272670895L1100.3941897954792,519.363538781181L1145.5869794357568,359.21943398192525Z" fill="#858585" stroke="#858585" fill-opacity="1" stroke-opacity="1"/><path d="M1145.5869794357568,359.21943398192525L1100.3941897954792,519.363538781181L1225.0314138550311,527.8056361153722Z" fill="#737373" stroke="#737373" fill-opacity="1" stroke-opacity="1"/><path d="M1145.5869794357568,359.21943398192525L1225.0314138550311,527.8056361153722L1275.5360050220042,317.3172147665173Z" fill="#7a7a7a" stroke="#7a7a7a" fill-opacity="1" stroke-opacity="1"/><path d="M1275.5360050220042,317.3172147665173L1225.0314138550311,527.8056361153722L1446.773846782744,481.8427033536136Z" fill="#6a6a6a" stroke="#6a6a6a" fill-opacity="1" stroke-opacity="1"/><path d="M1275.5360050220042,317.3172147665173L1446.773846782744,481.8427033536136L1467.341240812093,404.9190212599933Z" fill="#6a6a6a" stroke="#6a6a6a" fill-opacity="1" stroke-opacity="1"/><path d="M1467.341240812093,404.9190212599933L1446.773846782744,481.8427033536136L1612.4173187557608,468.088290290907Z" fill="#565656" stroke="#565656" fill-opacity="1" stroke-opacity="1"/><path d="M1467.341240812093,404.9190212599933L1612.4173187557608,468.088290290907L1567.885479759425,338.9319092966616Z" fill="#5c5c5c" stroke="#5c5c5c" fill-opacity="1" stroke-opacity="1"/><path d="M1567.885479759425,338.9319092966616L1612.4173187557608,468.088290290907L1707.076862063259,332.87056404165924Z" fill="#606060" stroke="#606060" fill-opacity="1" stroke-opacity="1"/><path d="M1707.076862063259,332.87056404165924L1612.4173187557608,468.088290290907L1703.8043199665844,566.0717430431396Z" fill="#525252" stroke="#525252" fill-opacity="1" stroke-opacity="1"/><path d="M-118.23026304133236,526.243761414662L-93.98596554994583,966.5297600906342L-61.89942958764732,667.8825306147337Z" fill="#9d9d9d" stroke="#9d9d9d" fill-opacity="1" stroke-opacity="1"/><path d="M-118.23026304133236,526.243761414662L-61.89942958764732,667.8825306147337L118.2426106184721,506.56843822449446Z" fill="#b6b6b6" stroke="#b6b6b6" fill-opacity="1" stroke-opacity="1"/><path d="M118.2426106184721,506.56843822449446L-61.89942958764732,667.8825306147337L87.3261233791709,661.3476268015802Z" fill="#aaaaaa" stroke="#aaaaaa" fill-opacity="1" stroke-opacity="1"/><path d="M118.2426106184721,506.56843822449446L87.3261233791709,661.3476268015802L222.43072821758687,631.6791621688753Z" fill="#a7a7a7" stroke="#a7a7a7" fill-opacity="1" stroke-opacity="1"/><path d="M118.2426106184721,506.56843822449446L222.43072821758687,631.6791621688753L263.42084085568786,570.4382376652211Z" fill="#aaaaaa" stroke="#aaaaaa" fill-opacity="1" stroke-opacity="1"/><path d="M263.42084085568786,570.4382376652211L222.43072821758687,631.6791621688753L427.78936883434653,618.6506060231477Z" fill="#9e9e9e" stroke="#9e9e9e" fill-opacity="1" stroke-opacity="1"/><path d="M263.42084085568786,570.4382376652211L427.78936883434653,618.6506060231477L404.1089573968202,489.9319704249501Z" fill="#a4a4a4" stroke="#a4a4a4" fill-opacity="1" stroke-opacity="1"/><path d="M404.1089573968202,489.9319704249501L427.78936883434653,618.6506060231477L545.7163180969656,572.0613492652774Z" fill="#9f9f9f" stroke="#9f9f9f" fill-opacity="1" stroke-opacity="1"/><path d="M545.7163180969656,572.0613492652774L427.78936883434653,618.6506060231477L579.9615022726357,697.2274770587683Z" fill="#8e8e8e" stroke="#8e8e8e" fill-opacity="1" stroke-opacity="1"/><path d="M545.7163180969656,572.0613492652774L579.9615022726357,697.2274770587683L664.1823458019644,662.9685404431075Z" fill="#858585" stroke="#858585" fill-opacity="1" stroke-opacity="1"/><path d="M545.7163180969656,572.0613492652774L664.1823458019644,662.9685404431075L703.725135633722,544.0242929197848Z" fill="#8b8b8b" stroke="#8b8b8b" fill-opacity="1" stroke-opacity="1"/><path d="M703.725135633722,544.0242929197848L664.1823458019644,662.9685404431075L820.5287704244256,701.833529099822Z" fill="#7a7a7a" stroke="#7a7a7a" fill-opacity="1" stroke-opacity="1"/><path d="M703.725135633722,544.0242929197848L820.5287704244256,701.833529099822L813.8586796168238,469.85643862746656Z" fill="#828282" stroke="#828282" fill-opacity="1" stroke-opacity="1"/><path d="M813.8586796168238,469.85643862746656L820.5287704244256,701.833529099822L981.5270299091935,493.74005396850407Z" fill="#7d7d7d" stroke="#7d7d7d" fill-opacity="1" stroke-opacity="1"/><path d="M981.5270299091935,493.74005396850407L820.5287704244256,701.833529099822L976.6506155021489,725.6463438458741Z" fill="#686868" stroke="#686868" fill-opacity="1" stroke-opacity="1"/><path d="M981.5270299091935,493.74005396850407L976.6506155021489,725.6463438458741L1100.3941897954792,519.363538781181Z" fill="#6b6b6b" stroke="#6b6b6b" fill-opacity="1" stroke-opacity="1"/><path d="M1100.3941897954792,519.363538781181L976.6506155021489,725.6463438458741L1140.8616463746876,726.5156846679747Z" fill="#585858" stroke="#585858" fill-opacity="1" stroke-opacity="1"/><path d="M1100.3941897954792,519.363538781181L1140.8616463746876,726.5156846679747L1225.0314138550311,527.8056361153722Z" fill="#5c5c5c" stroke="#5c5c5c" fill-opacity="1" stroke-opacity="1"/><path d="M1225.0314138550311,527.8056361153722L1140.8616463746876,726.5156846679747L1227.783728549257,702.411916712299Z" fill="#4d4d4d" stroke="#4d4d4d" fill-opacity="1" stroke-opacity="1"/><path d="M1225.0314138550311,527.8056361153722L1227.783728549257,702.411916712299L1427.732829619199,699.9940308742225Z" fill="#464646" stroke="#464646" fill-opacity="1" stroke-opacity="1"/><path d="M1225.0314138550311,527.8056361153722L1427.732829619199,699.9940308742225L1446.773846782744,481.8427033536136Z" fill="#4d4d4d" stroke="#4d4d4d" fill-opacity="1" stroke-opacity="1"/><path d="M1446.773846782744,481.8427033536136L1427.732829619199,699.9940308742225L1585.961805721745,703.4484397061169Z" fill="#383838" stroke="#383838" fill-opacity="1" stroke-opacity="1"/><path d="M1446.773846782744,481.8427033536136L1585.961805721745,703.4484397061169L1612.4173187557608,468.088290290907Z" fill="#404040" stroke="#404040" fill-opacity="1" stroke-opacity="1"/><path d="M1612.4173187557608,468.088290290907L1585.961805721745,703.4484397061169L1703.8043199665844,566.0717430431396Z" fill="#3b3b3b" stroke="#3b3b3b" fill-opacity="1" stroke-opacity="1"/><path d="M1703.8043199665844,566.0717430431396L1585.961805721745,703.4484397061169L1721.6693924367428,677.9901152383536Z" fill="#2e2e2e" stroke="#2e2e2e" fill-opacity="1" stroke-opacity="1"/><path d="M-61.89942958764732,667.8825306147337L-93.98596554994583,966.5297600906342L-20.87721741758287,779.6146230585873Z" fill="#8c8c8c" stroke="#8c8c8c" fill-opacity="1" stroke-opacity="1"/><path d="M-61.89942958764732,667.8825306147337L-20.87721741758287,779.6146230585873L87.3261233791709,661.3476268015802Z" fill="#9c9c9c" stroke="#9c9c9c" fill-opacity="1" stroke-opacity="1"/><path d="M87.3261233791709,661.3476268015802L-20.87721741758287,779.6146230585873L82.00097146444023,822.3057324998081Z" fill="#909090" stroke="#909090" fill-opacity="1" stroke-opacity="1"/><path d="M87.3261233791709,661.3476268015802L82.00097146444023,822.3057324998081L192.23659266717732,808.0964892636985Z" fill="#8a8a8a" stroke="#8a8a8a" fill-opacity="1" stroke-opacity="1"/><path d="M87.3261233791709,661.3476268015802L192.23659266717732,808.0964892636985L222.43072821758687,631.6791621688753Z" fill="#949494" stroke="#949494" fill-opacity="1" stroke-opacity="1"/><path d="M222.43072821758687,631.6791621688753L192.23659266717732,808.0964892636985L370.3776862844825,833.3890401944518Z" fill="#848484" stroke="#848484" fill-opacity="1" stroke-opacity="1"/><path d="M222.43072821758687,631.6791621688753L370.3776862844825,833.3890401944518L427.78936883434653,618.6506060231477Z" fill="#8c8c8c" stroke="#8c8c8c" fill-opacity="1" stroke-opacity="1"/><path d="M427.78936883434653,618.6506060231477L370.3776862844825,833.3890401944518L579.9615022726357,697.2274770587683Z" fill="#828282" stroke="#828282" fill-opacity="1" stroke-opacity="1"/><path d="M579.9615022726357,697.2274770587683L370.3776862844825,833.3890401944518L575.4889702051878,845.27766530402Z" fill="#717171" stroke="#717171" fill-opacity="1" stroke-opacity="1"/><path d="M579.9615022726357,697.2274770587683L575.4889702051878,845.27766530402L669.24824886024,839.6379215922207Z" fill="#686868" stroke="#686868" fill-opacity="1" stroke-opacity="1"/><path d="M579.9615022726357,697.2274770587683L669.24824886024,839.6379215922207L664.1823458019644,662.9685404431075Z" fill="#717171" stroke="#717171" fill-opacity="1" stroke-opacity="1"/><path d="M664.1823458019644,662.9685404431075L669.24824886024,839.6379215922207L820.5287704244256,701.833529099822Z" fill="#696969" stroke="#696969" fill-opacity="1" stroke-opacity="1"/><path d="M820.5287704244256,701.833529099822L669.24824886024,839.6379215922207L830.2701902668923,780.4165614489466Z" fill="#5c5c5c" stroke="#5c5c5c" fill-opacity="1" stroke-opacity="1"/><path d="M820.5287704244256,701.833529099822L830.2701902668923,780.4165614489466L976.6506155021489,725.6463438458741Z" fill="#5b5b5b" stroke="#5b5b5b" fill-opacity="1" stroke-opacity="1"/><path d="M976.6506155021489,725.6463438458741L830.2701902668923,780.4165614489466L983.3608063403517,842.4628550838679Z" fill="#4d4d4d" stroke="#4d4d4d" fill-opacity="1" stroke-opacity="1"/><path d="M976.6506155021489,725.6463438458741L983.3608063403517,842.4628550838679L1140.8616463746876,726.5156846679747Z" fill="#474747" stroke="#474747" fill-opacity="1" stroke-opacity="1"/><path d="M1140.8616463746876,726.5156846679747L983.3608063403517,842.4628550838679L1161.2294116057456,823.6473647039384Z" fill="#3c3c3c" stroke="#3c3c3c" fill-opacity="1" stroke-opacity="1"/><path d="M1140.8616463746876,726.5156846679747L1161.2294116057456,823.6473647039384L1227.783728549257,702.411916712299Z" fill="#3d3d3d" stroke="#3d3d3d" fill-opacity="1" stroke-opacity="1"/><path d="M1227.783728549257,702.411916712299L1161.2294116057456,823.6473647039384L1295.7313741464168,822.5912749115378Z" fill="#323232" stroke="#323232" fill-opacity="1" stroke-opacity="1"/><path d="M1227.783728549257,702.411916712299L1295.7313741464168,822.5912749115378L1427.732829619199,699.9940308742225Z" fill="#323232" stroke="#323232" fill-opacity="1" stroke-opacity="1"/><path d="M1427.732829619199,699.9940308742225L1295.7313741464168,822.5912749115378L1455.6478441972286,802.0362041238695Z" fill="#252525" stroke="#252525" fill-opacity="1" stroke-opacity="1"/><path d="M1427.732829619199,699.9940308742225L1455.6478441972286,802.0362041238695L1585.961805721745,703.4484397061169Z" fill="#242424" stroke="#242424" fill-opacity="1" stroke-opacity="1"/><path d="M1585.961805721745,703.4484397061169L1455.6478441972286,802.0362041238695L1599.2234496586025,782.6156987249851Z" fill="#191919" stroke="#191919" fill-opacity="1" stroke-opacity="1"/><path d="M1585.961805721745,703.4484397061169L1599.2234496586025,782.6156987249851L1721.6693924367428,677.9901152383536Z" fill="#202020" stroke="#202020" fill-opacity="1" stroke-opacity="1"/><path d="M1721.6693924367428,677.9901152383536L1599.2234496586025,782.6156987249851L1722.7400377672166,788.2170074991882Z" fill="#1b1b1b" stroke="#1b1b1b" fill-opacity="1" stroke-opacity="1"/><path d="M-20.87721741758287,779.6146230585873L-93.98596554994583,966.5297600906342L82.00097146444023,822.3057324998081Z" fill="#808080" stroke="#808080" fill-opacity="1" stroke-opacity="1"/><path d="M82.00097146444023,822.3057324998081L-93.98596554994583,966.5297600906342L105.7382798474282,943.2889701426029Z" fill="#777777" stroke="#777777" fill-opacity="1" stroke-opacity="1"/><path d="M82.00097146444023,822.3057324998081L105.7382798474282,943.2889701426029L192.23659266717732,808.0964892636985Z" fill="#787878" stroke="#787878" fill-opacity="1" stroke-opacity="1"/><path d="M192.23659266717732,808.0964892636985L105.7382798474282,943.2889701426029L256.2649223115295,939.5028580259532Z" fill="#6f6f6f" stroke="#6f6f6f" fill-opacity="1" stroke-opacity="1"/><path d="M192.23659266717732,808.0964892636985L256.2649223115295,939.5028580259532L370.3776862844825,833.3890401944518Z" fill="#707070" stroke="#707070" fill-opacity="1" stroke-opacity="1"/><path d="M370.3776862844825,833.3890401944518L256.2649223115295,939.5028580259532L333.48342329263687,975.5894020479172Z" fill="#686868" stroke="#686868" fill-opacity="1" stroke-opacity="1"/><path d="M370.3776862844825,833.3890401944518L333.48342329263687,975.5894020479172L470.44824248179793,992.0098482258618Z" fill="#646464" stroke="#646464" fill-opacity="1" stroke-opacity="1"/><path d="M370.3776862844825,833.3890401944518L470.44824248179793,992.0098482258618L575.4889702051878,845.27766530402Z" fill="#616161" stroke="#616161" fill-opacity="1" stroke-opacity="1"/><path d="M575.4889702051878,845.27766530402L470.44824248179793,992.0098482258618L675.8905792236328,937.4793803226203Z" fill="#585858" stroke="#585858" fill-opacity="1" stroke-opacity="1"/><path d="M575.4889702051878,845.27766530402L675.8905792236328,937.4793803226203L669.24824886024,839.6379215922207Z" fill="#565656" stroke="#565656" fill-opacity="1" stroke-opacity="1"/><path d="M669.24824886024,839.6379215922207L675.8905792236328,937.4793803226203L830.2701902668923,780.4165614489466Z" fill="#525252" stroke="#525252" fill-opacity="1" stroke-opacity="1"/><path d="M830.2701902668923,780.4165614489466L675.8905792236328,937.4793803226203L882.9727647453547,928.8466889038682Z" fill="#464646" stroke="#464646" fill-opacity="1" stroke-opacity="1"/><path d="M830.2701902668923,780.4165614489466L882.9727647453547,928.8466889038682L983.3608063403517,842.4628550838679Z" fill="#434343" stroke="#434343" fill-opacity="1" stroke-opacity="1"/><path d="M983.3608063403517,842.4628550838679L882.9727647453547,928.8466889038682L1003.8112119399011,980.5999887641519Z" fill="#363636" stroke="#363636" fill-opacity="1" stroke-opacity="1"/><path d="M983.3608063403517,842.4628550838679L1003.8112119399011,980.5999887641519L1161.2294116057456,823.6473647039384Z" fill="#303030" stroke="#303030" fill-opacity="1" stroke-opacity="1"/><path d="M1161.2294116057456,823.6473647039384L1003.8112119399011,980.5999887641519L1106.9631934538484,1030.0384048651904Z" fill="#2a2a2a" stroke="#2a2a2a" fill-opacity="1" stroke-opacity="1"/><path d="M1161.2294116057456,823.6473647039384L1106.9631934538484,1030.0384048651904L1273.1829206831753,1022.4260597862303Z" fill="#222222" stroke="#222222" fill-opacity="1" stroke-opacity="1"/><path d="M1161.2294116057456,823.6473647039384L1273.1829206831753,1022.4260597862303L1295.7313741464168,822.5912749115378Z" fill="#1d1d1d" stroke="#1d1d1d" fill-opacity="1" stroke-opacity="1"/><path d="M1295.7313741464168,822.5912749115378L1273.1829206831753,1022.4260597862303L1385.755378631875,1001.1575900763273Z" fill="#161616" stroke="#161616" fill-opacity="1" stroke-opacity="1"/><path d="M1295.7313741464168,822.5912749115378L1385.755378631875,1001.1575900763273L1455.6478441972286,802.0362041238695Z" fill="#141414" stroke="#141414" fill-opacity="1" stroke-opacity="1"/><path d="M1455.6478441972286,802.0362041238695L1385.755378631875,1001.1575900763273L1580.6349984370172,991.9423377513885Z" fill="#080808" stroke="#080808" fill-opacity="1" stroke-opacity="1"/><path d="M1455.6478441972286,802.0362041238695L1580.6349984370172,991.9423377513885L1599.2234496586025,782.6156987249851Z" fill="#080808" stroke="#080808" fill-opacity="1" stroke-opacity="1"/><path d="M1599.2234496586025,782.6156987249851L1580.6349984370172,991.9423377513885L1704.6948408801109,977.6711980998516Z" fill="#000000" stroke="#000000" fill-opacity="1" stroke-opacity="1"/><path d="M1599.2234496586025,782.6156987249851L1704.6948408801109,977.6711980998516L1722.7400377672166,788.2170074991882Z" fill="#080808" stroke="#080808" fill-opacity="1" stroke-opacity="1"/><path d="M-93.98596554994583,966.5297600906342L1106.9631934538484,1030.0384048651904L470.44824248179793,992.0098482258618Z" fill="#5f5f5f" stroke="#5f5f5f" fill-opacity="1" stroke-opacity="1"/><path d="M-93.98596554994583,966.5297600906342L470.44824248179793,992.0098482258618L333.48342329263687,975.5894020479172Z" fill="#6c6c6c" stroke="#6c6c6c" fill-opacity="1" stroke-opacity="1"/><path d="M-93.98596554994583,966.5297600906342L333.48342329263687,975.5894020479172L105.7382798474282,943.2889701426029Z" fill="#727272" stroke="#727272" fill-opacity="1" stroke-opacity="1"/><path d="M105.7382798474282,943.2889701426029L333.48342329263687,975.5894020479172L256.2649223115295,939.5028580259532Z" fill="#6c6c6c" stroke="#6c6c6c" fill-opacity="1" stroke-opacity="1"/><path d="M470.44824248179793,992.0098482258618L1106.9631934538484,1030.0384048651904L1003.8112119399011,980.5999887641519Z" fill="#3f3f3f" stroke="#3f3f3f" fill-opacity="1" stroke-opacity="1"/><path d="M470.44824248179793,992.0098482258618L1003.8112119399011,980.5999887641519L675.8905792236328,937.4793803226203Z" fill="#4b4b4b" stroke="#4b4b4b" fill-opacity="1" stroke-opacity="1"/><path d="M675.8905792236328,937.4793803226203L1003.8112119399011,980.5999887641519L882.9727647453547,928.8466889038682Z" fill="#3f3f3f" stroke="#3f3f3f" fill-opacity="1" stroke-opacity="1"/><path d="M1273.1829206831753,1022.4260597862303L1580.6349984370172,991.9423377513885L1385.755378631875,1001.1575900763273Z" fill="#0d0d0d" stroke="#0d0d0d" fill-opacity="1" stroke-opacity="1"/></g></svg>