<svg width="2007" height="973" xmlns="http://www.w3.org/2000/svg"><g><path d="M-45.893561309203506,-53.86663503013551L-79.9680960830301,134.8782396968454L68.59957904554904,16.242795092985034Z" fill="#fffbf9" stroke="#fffbf9"></path><path d="M-45.893561309203506,-53.86663503013551L68.59957904554904,16.242795092985034L88.57531199231744,-61.83119363151491Z" fill="#fff9f5" stroke="#fff9f5"></path><path d="M-45.893561309203506,-53.86663503013551L88.57531199231744,-61.83119363151491L248.19258676841855,-104.64918466284871Z" fill="#fff6f1" stroke="#fff6f1"></path><path d="M88.57531199231744,-61.83119363151491L68.59957904554904,16.242795092985034L185.054069487378,96.80701173841953Z" fill="#fff5f0" stroke="#fff5f0"></path><path d="M88.57531199231744,-61.83119363151491L185.054069487378,96.80701173841953L248.19258676841855,-104.64918466284871Z" fill="#fff2ec" stroke="#fff2ec"></path><path d="M248.19258676841855,-104.64918466284871L185.054069487378,96.80701173841953L322.1830290276557,103.46805984154344Z" fill="#ffede5" stroke="#ffede5"></path><path d="M248.19258676841855,-104.64918466284871L322.1830290276557,103.46805984154344L398.84018140845,-65.60987714678049Z" fill="#fee7de" stroke="#fee7de"></path><path d="M248.19258676841855,-104.64918466284871L398.84018140845,-65.60987714678049L710.0919461064041,-122.90736137889326Z" fill="#feddd0" stroke="#feddd0"></path><path d="M398.84018140845,-65.60987714678049L322.1830290276557,103.46805984154344L511.9350613374263,17.22618875093758Z" fill="#fee0d4" stroke="#fee0d4"></path><path d="M398.84018140845,-65.60987714678049L511.9350613374263,17.22618875093758L525.4229234531522,-40.114711951464415Z" fill="#fedacd" stroke="#fedacd"></path><path d="M398.84018140845,-65.60987714678049L525.4229234531522,-40.114711951464415L710.0919461064041,-122.90736137889326Z" fill="#fed4c6" stroke="#fed4c6"></path><path d="M525.4229234531522,-40.114711951464415L511.9350613374263,17.22618875093758L720.6050854828209,122.04397592693567Z" fill="#fed0c0" stroke="#fed0c0"></path><path d="M525.4229234531522,-40.114711951464415L720.6050854828209,122.04397592693567L710.0919461064041,-122.90736137889326Z" fill="#fecabb" stroke="#fecabb"></path><path d="M710.0919461064041,-122.90736137889326L720.6050854828209,122.04397592693567L833.8420785684139,-52.24053989164531Z" fill="#fec1b1" stroke="#fec1b1"></path><path d="M710.0919461064041,-122.90736137889326L833.8420785684139,-52.24053989164531L934.3944506999105,-109.11421839147806Z" fill="#fdbbab" stroke="#fdbbab"></path><path d="M710.0919461064041,-122.90736137889326L934.3944506999105,-109.11421839147806L1254.5737457089126,-110.53336123935878Z" fill="#fbada0" stroke="#fbada0"></path><path d="M710.0919461064041,-122.90736137889326L1254.5737457089126,-110.53336123935878L1678.9554708637297,-118.80623792298138Z" fill="#ef9592" stroke="#ef9592"></path><path d="M710.0919461064041,-122.90736137889326L1678.9554708637297,-118.80623792298138L2033.8691421411932,-120.97679902799428Z" fill="#da898c" stroke="#da898c"></path><path d="M833.8420785684139,-52.24053989164531L720.6050854828209,122.04397592693567L799.535089507699,118.99078231304884Z" fill="#fdbead" stroke="#fdbead"></path><path d="M833.8420785684139,-52.24053989164531L799.535089507699,118.99078231304884L920.3358795214444,103.11965779401362Z" fill="#fdb8a7" stroke="#fdb8a7"></path><path d="M833.8420785684139,-52.24053989164531L920.3358795214444,103.11965779401362L934.3944506999105,-109.11421839147806Z" fill="#fdb4a4" stroke="#fdb4a4"></path><path d="M934.3944506999105,-109.11421839147806L920.3358795214444,103.11965779401362L1114.2368800006807,74.91910080425441Z" fill="#fbaa9e" stroke="#fbaa9e"></path><path d="M934.3944506999105,-109.11421839147806L1114.2368800006807,74.91910080425441L1158.3435971383005,-21.899466142058372Z" fill="#f8a299" stroke="#f8a299"></path><path d="M934.3944506999105,-109.11421839147806L1158.3435971383005,-21.899466142058372L1254.5737457089126,-110.53336123935878Z" fill="#f79d96" stroke="#f79d96"></path><path d="M1158.3435971383005,-21.899466142058372L1114.2368800006807,74.91910080425441L1223.0795058980584,52.20775963738561Z" fill="#f39993" stroke="#f39993"></path><path d="M1158.3435971383005,-21.899466142058372L1223.0795058980584,52.20775963738561L1254.5737457089126,-110.53336123935878Z" fill="#ef9692" stroke="#ef9692"></path><path d="M1254.5737457089126,-110.53336123935878L1223.0795058980584,52.20775963738561L1453.352373316884,-31.1553552467376Z" fill="#e78e8f" stroke="#e78e8f"></path><path d="M1254.5737457089126,-110.53336123935878L1453.352373316884,-31.1553552467376L1532.0928416680545,-41.02297210134566Z" fill="#df8a8d" stroke="#df8a8d"></path><path d="M1254.5737457089126,-110.53336123935878L1532.0928416680545,-41.02297210134566L1678.9554708637297,-118.80623792298138Z" fill="#d8898c" stroke="#d8898c"></path><path d="M1453.352373316884,-31.1553552467376L1223.0795058980584,52.20775963738561L1451.3349950686097,90.73229664936662Z" fill="#e28b8d" stroke="#e28b8d"></path><path d="M1453.352373316884,-31.1553552467376L1451.3349950686097,90.73229664936662L1524.1588077507913,83.88669831678271Z" fill="#d9898b" stroke="#d9898b"></path><path d="M1453.352373316884,-31.1553552467376L1524.1588077507913,83.88669831678271L1532.0928416680545,-41.02297210134566Z" fill="#d7888b" stroke="#d7888b"></path><path d="M1532.0928416680545,-41.02297210134566L1524.1588077507913,83.88669831678271L1743.413045676425,43.066974794492126Z" fill="#cd8689" stroke="#cd8689"></path><path d="M1532.0928416680545,-41.02297210134566L1743.413045676425,43.066974794492126L1678.9554708637297,-118.80623792298138Z" fill="#c68489" stroke="#c68489"></path><path d="M1678.9554708637297,-118.80623792298138L1743.413045676425,43.066974794492126L1895.6112012919039,-17.531291898339987Z" fill="#b58086" stroke="#b58086"></path><path d="M1678.9554708637297,-118.80623792298138L1895.6112012919039,-17.531291898339987L2033.8691421411932,-120.97679902799428Z" fill="#a78085" stroke="#a78085"></path><path d="M1895.6112012919039,-17.531291898339987L1743.413045676425,43.066974794492126L1934.3050539772958,28.457799553871155Z" fill="#a98084" stroke="#a98084"></path><path d="M1895.6112012919039,-17.531291898339987L1934.3050539772958,28.457799553871155L2007.4444353114814,35.18039379268885Z" fill="#9d8083" stroke="#9d8083"></path><path d="M1895.6112012919039,-17.531291898339987L2007.4444353114814,35.18039379268885L2033.8691421411932,-120.97679902799428Z" fill="#988083" stroke="#988083"></path><path d="M2033.8691421411932,-120.97679902799428L2007.4444353114814,35.18039379268885L2162.1714718826115,-37.33783844858408Z" fill="#8c8081" stroke="#8c8081"></path><path d="M2162.1714718826115,-37.33783844858408L2007.4444353114814,35.18039379268885L2116.9563586916775,114.69241348095238Z" fill="#888080" stroke="#888080"></path><path d="M2162.1714718826115,-37.33783844858408L2116.9563586916775,114.69241348095238L2168.367398735136,225.2719913329929Z" fill="#80807d" stroke="#80807d"></path><path d="M-79.9680960830301,134.8782396968454L-106.3971249293536,665.078261224553L-66.697191959247,275.2772996854037Z" fill="#ffceba" stroke="#ffceba"></path><path d="M-79.9680960830301,134.8782396968454L-66.697191959247,275.2772996854037L87.48556639999151,258.27141956426203Z" fill="#ffead8" stroke="#ffead8"></path><path d="M-79.9680960830301,134.8782396968454L87.48556639999151,258.27141956426203L68.59957904554904,16.242795092985034Z" fill="#fff5ec" stroke="#fff5ec"></path><path d="M68.59957904554904,16.242795092985034L87.48556639999151,258.27141956426203L185.054069487378,96.80701173841953Z" fill="#fff2ea" stroke="#fff2ea"></path><path d="M185.054069487378,96.80701173841953L87.48556639999151,258.27141956426203L272.7390989474952,277.0053792838007Z" fill="#ffe3ce" stroke="#ffe3ce"></path><path d="M185.054069487378,96.80701173841953L272.7390989474952,277.0053792838007L322.1830290276557,103.46805984154344Z" fill="#ffe5d5" stroke="#ffe5d5"></path><path d="M322.1830290276557,103.46805984154344L272.7390989474952,277.0053792838007L390.1879986003041,204.0341183077544Z" fill="#fedac3" stroke="#fedac3"></path><path d="M322.1830290276557,103.46805984154344L390.1879986003041,204.0341183077544L511.9350613374263,17.22618875093758Z" fill="#fee0d2" stroke="#fee0d2"></path><path d="M511.9350613374263,17.22618875093758L390.1879986003041,204.0341183077544L568.5331823397428,206.87478435225785Z" fill="#fed4c0" stroke="#fed4c0"></path><path d="M511.9350613374263,17.22618875093758L568.5331823397428,206.87478435225785L720.6050854828209,122.04397592693567Z" fill="#fecebb" stroke="#fecebb"></path><path d="M720.6050854828209,122.04397592693567L568.5331823397428,206.87478435225785L694.5897061005235,219.58553141914308Z" fill="#febea3" stroke="#febea3"></path><path d="M720.6050854828209,122.04397592693567L694.5897061005235,219.58553141914308L799.535089507699,118.99078231304884Z" fill="#febca4" stroke="#febca4"></path><path d="M799.535089507699,118.99078231304884L694.5897061005235,219.58553141914308L875.8765133935958,254.70844731666148Z" fill="#fdb093" stroke="#fdb093"></path><path d="M799.535089507699,118.99078231304884L875.8765133935958,254.70844731666148L920.3358795214444,103.11965779401362Z" fill="#fdb097" stroke="#fdb097"></path><path d="M920.3358795214444,103.11965779401362L875.8765133935958,254.70844731666148L962.4968141131103,239.44220535457134Z" fill="#fda488" stroke="#fda488"></path><path d="M920.3358795214444,103.11965779401362L962.4968141131103,239.44220535457134L1114.2368800006807,74.91910080425441Z" fill="#faa593" stroke="#faa593"></path><path d="M1114.2368800006807,74.91910080425441L962.4968141131103,239.44220535457134L1148.2903905026615,169.02646464295685Z" fill="#f89988" stroke="#f89988"></path><path d="M1114.2368800006807,74.91910080425441L1148.2903905026615,169.02646464295685L1223.0795058980584,52.20775963738561Z" fill="#f39a92" stroke="#f39a92"></path><path d="M1223.0795058980584,52.20775963738561L1148.2903905026615,169.02646464295685L1220.8033401332796,237.2578456811607Z" fill="#f19084" stroke="#f19084"></path><path d="M1223.0795058980584,52.20775963738561L1220.8033401332796,237.2578456811607L1451.3349950686097,90.73229664936662Z" fill="#e88c88" stroke="#e88c88"></path><path d="M1451.3349950686097,90.73229664936662L1220.8033401332796,237.2578456811607L1480.2424657624215,225.5635163001716Z" fill="#e17f76" stroke="#e17f76"></path><path d="M1451.3349950686097,90.73229664936662L1480.2424657624215,225.5635163001716L1524.1588077507913,83.88669831678271Z" fill="#d98582" stroke="#d98582"></path><path d="M1524.1588077507913,83.88669831678271L1480.2424657624215,225.5635163001716L1559.0026755910367,231.8067947588861Z" fill="#d67e75" stroke="#d67e75"></path><path d="M1524.1588077507913,83.88669831678271L1559.0026755910367,231.8067947588861L1743.413045676425,43.066974794492126Z" fill="#cc8484" stroke="#cc8484"></path><path d="M1743.413045676425,43.066974794492126L1559.0026755910367,231.8067947588861L1783.8595250621438,218.75535403378308Z" fill="#c07a76" stroke="#c07a76"></path><path d="M1743.413045676425,43.066974794492126L1783.8595250621438,218.75535403378308L1934.3050539772958,28.457799553871155Z" fill="#ae8084" stroke="#ae8084"></path><path d="M1934.3050539772958,28.457799553871155L1783.8595250621438,218.75535403378308L1899.9610163178295,231.19933856651187Z" fill="#a77874" stroke="#a77874"></path><path d="M1934.3050539772958,28.457799553871155L1899.9610163178295,231.19933856651187L2007.4444353114814,35.18039379268885Z" fill="#9d8081" stroke="#9d8081"></path><path d="M2007.4444353114814,35.18039379268885L1899.9610163178295,231.19933856651187L2026.938208071515,242.93434116058052Z" fill="#987770" stroke="#987770"></path><path d="M2007.4444353114814,35.18039379268885L2026.938208071515,242.93434116058052L2116.9563586916775,114.69241348095238Z" fill="#8e7c79" stroke="#8e7c79"></path><path d="M2116.9563586916775,114.69241348095238L2026.938208071515,242.93434116058052L2168.367398735136,225.2719913329929Z" fill="#877367" stroke="#877367"></path><path d="M-66.697191959247,275.2772996854037L-106.3971249293536,665.078261224553L-43.12938177958131,548.8989228475839Z" fill="#ffad9f" stroke="#ffad9f"></path><path d="M-66.697191959247,275.2772996854037L-43.12938177958131,548.8989228475839L-28.208702942356467,399.5720811467618Z" fill="#ffc1ad" stroke="#ffc1ad"></path><path d="M-66.697191959247,275.2772996854037L-28.208702942356467,399.5720811467618L49.24831364303827,353.1416095979512Z" fill="#ffceb9" stroke="#ffceb9"></path><path d="M-66.697191959247,275.2772996854037L49.24831364303827,353.1416095979512L87.48556639999151,258.27141956426203Z" fill="#ffd7c2" stroke="#ffd7c2"></path><path d="M87.48556639999151,258.27141956426203L49.24831364303827,353.1416095979512L282.65243768692017,357.91372342966497Z" fill="#ffccb3" stroke="#ffccb3"></path><path d="M87.48556639999151,258.27141956426203L282.65243768692017,357.91372342966497L272.7390989474952,277.0053792838007Z" fill="#ffceb5" stroke="#ffceb5"></path><path d="M272.7390989474952,277.0053792838007L282.65243768692017,357.91372342966497L409.70194092951715,385.86503902450204Z" fill="#febc9f" stroke="#febc9f"></path><path d="M272.7390989474952,277.0053792838007L409.70194092951715,385.86503902450204L390.1879986003041,204.0341183077544Z" fill="#fec4a7" stroke="#fec4a7"></path><path d="M390.1879986003041,204.0341183077544L409.70194092951715,385.86503902450204L568.5331823397428,206.87478435225785Z" fill="#fec1a3" stroke="#fec1a3"></path><path d="M568.5331823397428,206.87478435225785L409.70194092951715,385.86503902450204L582.8341790568084,352.92417305521667Z" fill="#feb08f" stroke="#feb08f"></path><path d="M568.5331823397428,206.87478435225785L582.8341790568084,352.92417305521667L694.5897061005235,219.58553141914308Z" fill="#feb493" stroke="#feb493"></path><path d="M694.5897061005235,219.58553141914308L582.8341790568084,352.92417305521667L734.352611862123,361.1367079988122Z" fill="#fea381" stroke="#fea381"></path><path d="M694.5897061005235,219.58553141914308L734.352611862123,361.1367079988122L875.8765133935958,254.70844731666148Z" fill="#fea280" stroke="#fea280"></path><path d="M875.8765133935958,254.70844731666148L734.352611862123,361.1367079988122L827.7729154285043,404.58219506777823Z" fill="#fd906d" stroke="#fd906d"></path><path d="M875.8765133935958,254.70844731666148L827.7729154285043,404.58219506777823L920.4222961887717,411.6702883131802Z" fill="#fd8764" stroke="#fd8764"></path><path d="M875.8765133935958,254.70844731666148L920.4222961887717,411.6702883131802L962.4968141131103,239.44220535457134Z" fill="#fd8e6d" stroke="#fd8e6d"></path><path d="M962.4968141131103,239.44220535457134L920.4222961887717,411.6702883131802L1093.6881507374346,381.9500973634422Z" fill="#fb7d5e" stroke="#fb7d5e"></path><path d="M962.4968141131103,239.44220535457134L1093.6881507374346,381.9500973634422L1148.2903905026615,169.02646464295685Z" fill="#f9886d" stroke="#f9886d"></path><path d="M1148.2903905026615,169.02646464295685L1093.6881507374346,381.9500973634422L1220.8033401332796,237.2578456811607Z" fill="#f48069" stroke="#f48069"></path><path d="M1220.8033401332796,237.2578456811607L1093.6881507374346,381.9500973634422L1299.381081853062,338.4173882100731Z" fill="#f06f59" stroke="#f06f59"></path><path d="M1220.8033401332796,237.2578456811607L1299.381081853062,338.4173882100731L1480.2424657624215,225.5635163001716Z" fill="#e67162" stroke="#e67162"></path><path d="M1480.2424657624215,225.5635163001716L1299.381081853062,338.4173882100731L1373.917379854247,426.1904334370047Z" fill="#e16150" stroke="#e16150"></path><path d="M1480.2424657624215,225.5635163001716L1373.917379854247,426.1904334370047L1553.441064544022,387.899061832577Z" fill="#da5c4b" stroke="#da5c4b"></path><path d="M1480.2424657624215,225.5635163001716L1553.441064544022,387.899061832577L1559.0026755910367,231.8067947588861Z" fill="#d5695a" stroke="#d5695a"></path><path d="M1559.0026755910367,231.8067947588861L1553.441064544022,387.899061832577L1739.9436232354492,333.10049942694604Z" fill="#ca5e4f" stroke="#ca5e4f"></path><path d="M1559.0026755910367,231.8067947588861L1739.9436232354492,333.10049942694604L1783.8595250621438,218.75535403378308Z" fill="#c0695d" stroke="#c0695d"></path><path d="M1783.8595250621438,218.75535403378308L1739.9436232354492,333.10049942694604L1856.7507395055145,375.56649184785783Z" fill="#b25b4f" stroke="#b25b4f"></path><path d="M1783.8595250621438,218.75535403378308L1856.7507395055145,375.56649184785783L1899.9610163178295,231.19933856651187Z" fill="#ab6256" stroke="#ab6256"></path><path d="M1899.9610163178295,231.19933856651187L1856.7507395055145,375.56649184785783L2055.4293575137854,331.26121521927416Z" fill="#9e5a4b" stroke="#9e5a4b"></path><path d="M1899.9610163178295,231.19933856651187L2055.4293575137854,331.26121521927416L2026.938208071515,242.93434116058052Z" fill="#966455" stroke="#966455"></path><path d="M2026.938208071515,242.93434116058052L2055.4293575137854,331.26121521927416L2168.367398735136,225.2719913329929Z" fill="#8a6454" stroke="#8a6454"></path><path d="M2168.367398735136,225.2719913329929L2055.4293575137854,331.26121521927416L2134.9119642935693,431.20285405777395Z" fill="#855644" stroke="#855644"></path><path d="M2168.367398735136,225.2719913329929L2134.9119642935693,431.20285405777395L2138.5004812292755,546.2299043498933Z" fill="#814633" stroke="#814633"></path><path d="M2168.367398735136,225.2719913329929L2138.5004812292755,546.2299043498933L2160.6186315603554,1132.85560246557Z" fill="#7a1413" stroke="#7a1413"></path><path d="M-28.208702942356467,399.5720811467618L-43.12938177958131,548.8989228475839L92.22676693461835,569.3684670422226Z" fill="#ffa698" stroke="#ffa698"></path><path d="M-28.208702942356467,399.5720811467618L92.22676693461835,569.3684670422226L49.24831364303827,353.1416095979512Z" fill="#ffb6a0" stroke="#ffb6a0"></path><path d="M49.24831364303827,353.1416095979512L92.22676693461835,569.3684670422226L268.22502055205405,544.0032747108489Z" fill="#ffa592" stroke="#ffa592"></path><path d="M49.24831364303827,353.1416095979512L268.22502055205405,544.0032747108489L282.65243768692017,357.91372342966497Z" fill="#ffb39a" stroke="#ffb39a"></path><path d="M282.65243768692017,357.91372342966497L268.22502055205405,544.0032747108489L359.8545681685209,495.3186741191894Z" fill="#fea087" stroke="#fea087"></path><path d="M282.65243768692017,357.91372342966497L359.8545681685209,495.3186741191894L409.70194092951715,385.86503902450204Z" fill="#fea98c" stroke="#fea98c"></path><path d="M409.70194092951715,385.86503902450204L359.8545681685209,495.3186741191894L569.3496285192668,547.0985312853009Z" fill="#fe9175" stroke="#fe9175"></path><path d="M409.70194092951715,385.86503902450204L569.3496285192668,547.0985312853009L582.8341790568084,352.92417305521667Z" fill="#fe9776" stroke="#fe9776"></path><path d="M582.8341790568084,352.92417305521667L569.3496285192668,547.0985312853009L685.6454272940755,524.257603911683Z" fill="#fe8264" stroke="#fe8264"></path><path d="M582.8341790568084,352.92417305521667L685.6454272940755,524.257603911683L734.352611862123,361.1367079988122Z" fill="#fe8d6a" stroke="#fe8d6a"></path><path d="M734.352611862123,361.1367079988122L685.6454272940755,524.257603911683L827.7729154285043,404.58219506777823Z" fill="#fe825f" stroke="#fe825f"></path><path d="M827.7729154285043,404.58219506777823L685.6454272940755,524.257603911683L820.3986791241914,579.4008270464838Z" fill="#fe6c50" stroke="#fe6c50"></path><path d="M827.7729154285043,404.58219506777823L820.3986791241914,579.4008270464838L920.4222961887717,411.6702883131802Z" fill="#fd6f4f" stroke="#fd6f4f"></path><path d="M920.4222961887717,411.6702883131802L820.3986791241914,579.4008270464838L973.2443627715111,509.8494836501777Z" fill="#fd6145" stroke="#fd6145"></path><path d="M920.4222961887717,411.6702883131802L973.2443627715111,509.8494836501777L1093.6881507374346,381.9500973634422Z" fill="#fa694a" stroke="#fa694a"></path><path d="M1093.6881507374346,381.9500973634422L973.2443627715111,509.8494836501777L1109.1550075728446,544.5110630616546Z" fill="#f9573f" stroke="#f9573f"></path><path d="M1093.6881507374346,381.9500973634422L1109.1550075728446,544.5110630616546L1271.4897662959993,573.0718607828021Z" fill="#f44836" stroke="#f44836"></path><path d="M1093.6881507374346,381.9500973634422L1271.4897662959993,573.0718607828021L1299.381081853062,338.4173882100731Z" fill="#ef553f" stroke="#ef553f"></path><path d="M1299.381081853062,338.4173882100731L1271.4897662959993,573.0718607828021L1373.917379854247,426.1904334370047Z" fill="#e74a3a" stroke="#e74a3a"></path><path d="M1373.917379854247,426.1904334370047L1271.4897662959993,573.0718607828021L1436.2620253488421,527.135368231684Z" fill="#e3372e" stroke="#e3372e"></path><path d="M1373.917379854247,426.1904334370047L1436.2620253488421,527.135368231684L1553.441064544022,387.899061832577Z" fill="#db4536" stroke="#db4536"></path><path d="M1553.441064544022,387.899061832577L1436.2620253488421,527.135368231684L1607.9035967588425,564.6221245732158Z" fill="#d5382d" stroke="#d5382d"></path><path d="M1553.441064544022,387.899061832577L1607.9035967588425,564.6221245732158L1773.7652849871665,509.1970514226705Z" fill="#c7362c" stroke="#c7362c"></path><path d="M1553.441064544022,387.899061832577L1773.7652849871665,509.1970514226705L1739.9436232354492,333.10049942694604Z" fill="#c04739" stroke="#c04739"></path><path d="M1739.9436232354492,333.10049942694604L1773.7652849871665,509.1970514226705L1841.8869330827147,473.7986767385155Z" fill="#b33e32" stroke="#b33e32"></path><path d="M1739.9436232354492,333.10049942694604L1841.8869330827147,473.7986767385155L1856.7507395055145,375.56649184785783Z" fill="#af483b" stroke="#af483b"></path><path d="M1856.7507395055145,375.56649184785783L1841.8869330827147,473.7986767385155L2055.4293575137854,331.26121521927416Z" fill="#a14839" stroke="#a14839"></path><path d="M2055.4293575137854,331.26121521927416L1841.8869330827147,473.7986767385155L2062.331517515704,573.2780352327973Z" fill="#97382b" stroke="#97382b"></path><path d="M2055.4293575137854,331.26121521927416L2062.331517515704,573.2780352327973L2134.9119642935693,431.20285405777395Z" fill="#8a3c2b" stroke="#8a3c2b"></path><path d="M2134.9119642935693,431.20285405777395L2062.331517515704,573.2780352327973L2138.5004812292755,546.2299043498933Z" fill="#86291f" stroke="#86291f"></path><path d="M-43.12938177958131,548.8989228475839L-106.3971249293536,665.078261224553L89.40111503005028,649.4563664775342Z" fill="#fa928d" stroke="#fa928d"></path><path d="M-43.12938177958131,548.8989228475839L89.40111503005028,649.4563664775342L92.22676693461835,569.3684670422226Z" fill="#fc948b" stroke="#fc948b"></path><path d="M92.22676693461835,569.3684670422226L89.40111503005028,649.4563664775342L261.1577743012458,643.3012967649847Z" fill="#fa8a82" stroke="#fa8a82"></path><path d="M92.22676693461835,569.3684670422226L261.1577743012458,643.3012967649847L268.22502055205405,544.0032747108489Z" fill="#fc8c81" stroke="#fc8c81"></path><path d="M268.22502055205405,544.0032747108489L261.1577743012458,643.3012967649847L359.8545681685209,495.3186741191894Z" fill="#fd8a7a" stroke="#fd8a7a"></path><path d="M359.8545681685209,495.3186741191894L261.1577743012458,643.3012967649847L401.9875378534198,719.6040884032845Z" fill="#fa7c70" stroke="#fa7c70"></path><path d="M359.8545681685209,495.3186741191894L401.9875378534198,719.6040884032845L533.6792784836143,659.1738236881793Z" fill="#f97466" stroke="#f97466"></path><path d="M359.8545681685209,495.3186741191894L533.6792784836143,659.1738236881793L569.3496285192668,547.0985312853009Z" fill="#fc7864" stroke="#fc7864"></path><path d="M569.3496285192668,547.0985312853009L533.6792784836143,659.1738236881793L675.7445892132819,711.6138587985188Z" fill="#f86353" stroke="#f86353"></path><path d="M569.3496285192668,547.0985312853009L675.7445892132819,711.6138587985188L685.6454272940755,524.257603911683Z" fill="#fb6652" stroke="#fb6652"></path><path d="M685.6454272940755,524.257603911683L675.7445892132819,711.6138587985188L820.3986791241914,579.4008270464838Z" fill="#fa5d49" stroke="#fa5d49"></path><path d="M820.3986791241914,579.4008270464838L675.7445892132819,711.6138587985188L765.3472966700792,725.6651142798364Z" fill="#f25343" stroke="#f25343"></path><path d="M820.3986791241914,579.4008270464838L765.3472966700792,725.6651142798364L948.3578180428594,685.9507002029568Z" fill="#f44b3b" stroke="#f44b3b"></path><path d="M820.3986791241914,579.4008270464838L948.3578180428594,685.9507002029568L973.2443627715111,509.8494836501777Z" fill="#fa4d3a" stroke="#fa4d3a"></path><path d="M973.2443627715111,509.8494836501777L948.3578180428594,685.9507002029568L1109.1550075728446,544.5110630616546Z" fill="#f84534" stroke="#f84534"></path><path d="M1109.1550075728446,544.5110630616546L948.3578180428594,685.9507002029568L1178.2976082433015,661.8865183833987Z" fill="#f3362c" stroke="#f3362c"></path><path d="M1109.1550075728446,544.5110630616546L1178.2976082433015,661.8865183833987L1271.4897662959993,573.0718607828021Z" fill="#ee332a" stroke="#ee332a"></path><path d="M1271.4897662959993,573.0718607828021L1178.2976082433015,661.8865183833987L1314.218511460349,669.9848283547908Z" fill="#e62624" stroke="#e62624"></path><path d="M1271.4897662959993,573.0718607828021L1314.218511460349,669.9848283547908L1436.2620253488421,527.135368231684Z" fill="#e22725" stroke="#e22725"></path><path d="M1436.2620253488421,527.135368231684L1314.218511460349,669.9848283547908L1368.8410716410726,713.5670499131083Z" fill="#dc1f21" stroke="#dc1f21"></path><path d="M1436.2620253488421,527.135368231684L1368.8410716410726,713.5670499131083L1526.6282521281391,706.2581203691661Z" fill="#d61c1e" stroke="#d61c1e"></path><path d="M1436.2620253488421,527.135368231684L1526.6282521281391,706.2581203691661L1607.9035967588425,564.6221245732158Z" fill="#d22221" stroke="#d22221"></path><path d="M1607.9035967588425,564.6221245732158L1526.6282521281391,706.2581203691661L1704.4804768636823,726.9749862793833Z" fill="#c1181b" stroke="#c1181b"></path><path d="M1607.9035967588425,564.6221245732158L1704.4804768636823,726.9749862793833L1815.8141632005572,621.9576018489897Z" fill="#b8161b" stroke="#b8161b"></path><path d="M1607.9035967588425,564.6221245732158L1815.8141632005572,621.9576018489897L1773.7652849871665,509.1970514226705Z" fill="#b92120" stroke="#b92120"></path><path d="M1773.7652849871665,509.1970514226705L1815.8141632005572,621.9576018489897L1841.8869330827147,473.7986767385155Z" fill="#b02521" stroke="#b02521"></path><path d="M1841.8869330827147,473.7986767385155L1815.8141632005572,621.9576018489897L1995.4466993082315,617.4442779365927Z" fill="#a31e1c" stroke="#a31e1c"></path><path d="M1841.8869330827147,473.7986767385155L1995.4466993082315,617.4442779365927L2062.331517515704,573.2780352327973Z" fill="#99211c" stroke="#99211c"></path><path d="M2062.331517515704,573.2780352327973L1995.4466993082315,617.4442779365927L2117.612734772265,688.020485965535Z" fill="#881515" stroke="#881515"></path><path d="M2062.331517515704,573.2780352327973L2117.612734772265,688.020485965535L2138.5004812292755,546.2299043498933Z" fill="#831916" stroke="#831916"></path><path d="M2138.5004812292755,546.2299043498933L2117.612734772265,688.020485965535L2116.7762199416757,829.177391929552Z" fill="#751212" stroke="#751212"></path><path d="M2138.5004812292755,546.2299043498933L2116.7762199416757,829.177391929552L2138.5204159934074,989.0761940181255Z" fill="#5b0d12" stroke="#5b0d12"></path><path d="M2138.5004812292755,546.2299043498933L2138.5204159934074,989.0761940181255L2160.6186315603554,1132.85560246557Z" fill="#360012" stroke="#360012"></path><path d="M-106.3971249293536,665.078261224553L-74.83986482955515,1023.8156189024448L-21.76058666780591,821.7792899440974Z" fill="#c7828e" stroke="#c7828e"></path><path d="M-106.3971249293536,665.078261224553L-21.76058666780591,821.7792899440974L89.40111503005028,649.4563664775342Z" fill="#ec8d8b" stroke="#ec8d8b"></path><path d="M89.40111503005028,649.4563664775342L-21.76058666780591,821.7792899440974L52.43431393057108,813.8124087732285Z" fill="#e18987" stroke="#e18987"></path><path d="M89.40111503005028,649.4563664775342L52.43431393057108,813.8124087732285L281.7890673223883,771.7639364115894Z" fill="#e48680" stroke="#e48680"></path><path d="M89.40111503005028,649.4563664775342L281.7890673223883,771.7639364115894L261.1577743012458,643.3012967649847Z" fill="#f0827c" stroke="#f0827c"></path><path d="M261.1577743012458,643.3012967649847L281.7890673223883,771.7639364115894L401.9875378534198,719.6040884032845Z" fill="#eb7a71" stroke="#eb7a71"></path><path d="M401.9875378534198,719.6040884032845L281.7890673223883,771.7639364115894L344.6008698362857,822.8553290013224Z" fill="#dc756e" stroke="#dc756e"></path><path d="M401.9875378534198,719.6040884032845L344.6008698362857,822.8553290013224L559.4671984668821,877.296294439584Z" fill="#d06863" stroke="#d06863"></path><path d="M401.9875378534198,719.6040884032845L559.4671984668821,877.296294439584L533.6792784836143,659.1738236881793Z" fill="#e26a5d" stroke="#e26a5d"></path><path d="M533.6792784836143,659.1738236881793L559.4671984668821,877.296294439584L675.7445892132819,711.6138587985188Z" fill="#e26253" stroke="#e26253"></path><path d="M675.7445892132819,711.6138587985188L559.4671984668821,877.296294439584L726.4461736567318,836.5048462338746Z" fill="#cf544c" stroke="#cf544c"></path><path d="M675.7445892132819,711.6138587985188L726.4461736567318,836.5048462338746L765.3472966700792,725.6651142798364Z" fill="#e05646" stroke="#e05646"></path><path d="M765.3472966700792,725.6651142798364L726.4461736567318,836.5048462338746L838.1058521848172,790.0152314454317Z" fill="#d74d41" stroke="#d74d41"></path><path d="M765.3472966700792,725.6651142798364L838.1058521848172,790.0152314454317L948.3578180428594,685.9507002029568Z" fill="#e54a3a" stroke="#e54a3a"></path><path d="M948.3578180428594,685.9507002029568L838.1058521848172,790.0152314454317L936.9016811996698,773.4281146712601Z" fill="#e14536" stroke="#e14536"></path><path d="M948.3578180428594,685.9507002029568L936.9016811996698,773.4281146712601L1088.7914740853012,858.3479153551161Z" fill="#d83a30" stroke="#d83a30"></path><path d="M948.3578180428594,685.9507002029568L1088.7914740853012,858.3479153551161L1178.2976082433015,661.8865183833987Z" fill="#e0342b" stroke="#e0342b"></path><path d="M1178.2976082433015,661.8865183833987L1088.7914740853012,858.3479153551161L1274.4340429175645,798.7809902429581Z" fill="#cf2826" stroke="#cf2826"></path><path d="M1178.2976082433015,661.8865183833987L1274.4340429175645,798.7809902429581L1314.218511460349,669.9848283547908Z" fill="#d82423" stroke="#d82423"></path><path d="M1314.218511460349,669.9848283547908L1274.4340429175645,798.7809902429581L1368.8410716410726,713.5670499131083Z" fill="#d01f21" stroke="#d01f21"></path><path d="M1368.8410716410726,713.5670499131083L1274.4340429175645,798.7809902429581L1470.6639750860631,871.5264294762164Z" fill="#b81720" stroke="#b81720"></path><path d="M1368.8410716410726,713.5670499131083L1470.6639750860631,871.5264294762164L1526.6282521281391,706.2581203691661Z" fill="#bc1a1e" stroke="#bc1a1e"></path><path d="M1526.6282521281391,706.2581203691661L1470.6639750860631,871.5264294762164L1560.6927951425314,767.1524090040475Z" fill="#b0161d" stroke="#b0161d"></path><path d="M1526.6282521281391,706.2581203691661L1560.6927951425314,767.1524090040475L1704.4804768636823,726.9749862793833Z" fill="#b5181c" stroke="#b5181c"></path><path d="M1704.4804768636823,726.9749862793833L1560.6927951425314,767.1524090040475L1751.905300905928,796.6638262756169Z" fill="#a3151a" stroke="#a3151a"></path><path d="M1704.4804768636823,726.9749862793833L1751.905300905928,796.6638262756169L1815.8141632005572,621.9576018489897Z" fill="#a21319" stroke="#a21319"></path><path d="M1815.8141632005572,621.9576018489897L1751.905300905928,796.6638262756169L1889.8779167979956,767.0839954353869Z" fill="#971218" stroke="#971218"></path><path d="M1815.8141632005572,621.9576018489897L1889.8779167979956,767.0839954353869L1995.4466993082315,617.4442779365927Z" fill="#991216" stroke="#991216"></path><path d="M1995.4466993082315,617.4442779365927L1889.8779167979956,767.0839954353869L2022.0642577763647,797.5656537618488Z" fill="#831215" stroke="#831215"></path><path d="M1995.4466993082315,617.4442779365927L2022.0642577763647,797.5656537618488L2117.612734772265,688.020485965535Z" fill="#7d1214" stroke="#7d1214"></path><path d="M2117.612734772265,688.020485965535L2022.0642577763647,797.5656537618488L2116.7762199416757,829.177391929552Z" fill="#670f13" stroke="#670f13"></path><path d="M-21.76058666780591,821.7792899440974L-74.83986482955515,1023.8156189024448L111.58283768221736,959.9493548925966Z" fill="#a57b89" stroke="#a57b89"></path><path d="M-21.76058666780591,821.7792899440974L111.58283768221736,959.9493548925966L52.43431393057108,813.8124087732285Z" fill="#bd7987" stroke="#bd7987"></path><path d="M52.43431393057108,813.8124087732285L111.58283768221736,959.9493548925966L281.7890673223883,771.7639364115894Z" fill="#c27680" stroke="#c27680"></path><path d="M281.7890673223883,771.7639364115894L111.58283768221736,959.9493548925966L260.0815061107278,985.8761513326317Z" fill="#af707b" stroke="#af707b"></path><path d="M281.7890673223883,771.7639364115894L260.0815061107278,985.8761513326317L344.6008698362857,822.8553290013224Z" fill="#be6b73" stroke="#be6b73"></path><path d="M344.6008698362857,822.8553290013224L260.0815061107278,985.8761513326317L393.6938067153096,936.2876033876091Z" fill="#ab676f" stroke="#ab676f"></path><path d="M344.6008698362857,822.8553290013224L393.6938067153096,936.2876033876091L559.4671984668821,877.296294439584Z" fill="#b75f64" stroke="#b75f64"></path><path d="M559.4671984668821,877.296294439584L393.6938067153096,936.2876033876091L526.2170866224915,997.6195558346808Z" fill="#a3595d" stroke="#a3595d"></path><path d="M559.4671984668821,877.296294439584L526.2170866224915,997.6195558346808L729.3934477027506,966.9989192392677Z" fill="#a04f51" stroke="#a04f51"></path><path d="M559.4671984668821,877.296294439584L729.3934477027506,966.9989192392677L726.4461736567318,836.5048462338746Z" fill="#b2494b" stroke="#b2494b"></path><path d="M726.4461736567318,836.5048462338746L729.3934477027506,966.9989192392677L801.6684807278216,983.2167249452323Z" fill="#a64243" stroke="#a64243"></path><path d="M726.4461736567318,836.5048462338746L801.6684807278216,983.2167249452323L838.1058521848172,790.0152314454317Z" fill="#ba3f40" stroke="#ba3f40"></path><path d="M838.1058521848172,790.0152314454317L801.6684807278216,983.2167249452323L995.138734029606,934.5881520677358Z" fill="#ae3638" stroke="#ae3638"></path><path d="M838.1058521848172,790.0152314454317L995.138734029606,934.5881520677358L936.9016811996698,773.4281146712601Z" fill="#c53735" stroke="#c53735"></path><path d="M936.9016811996698,773.4281146712601L995.138734029606,934.5881520677358L1088.7914740853012,858.3479153551161Z" fill="#bb2b2f" stroke="#bb2b2f"></path><path d="M1088.7914740853012,858.3479153551161L995.138734029606,934.5881520677358L1156.7947530280799,920.146726956591Z" fill="#a9212a" stroke="#a9212a"></path><path d="M1088.7914740853012,858.3479153551161L1156.7947530280799,920.146726956591L1274.4340429175645,798.7809902429581Z" fill="#b31a26" stroke="#b31a26"></path><path d="M1274.4340429175645,798.7809902429581L1156.7947530280799,920.146726956591L1299.9990628100932,916.8229679670185Z" fill="#a61423" stroke="#a61423"></path><path d="M1274.4340429175645,798.7809902429581L1299.9990628100932,916.8229679670185L1470.6639750860631,871.5264294762164Z" fill="#a30d20" stroke="#a30d20"></path><path d="M1470.6639750860631,871.5264294762164L1299.9990628100932,916.8229679670185L1440.2683429140598,955.5022389348596Z" fill="#8d0b1f" stroke="#8d0b1f"></path><path d="M1470.6639750860631,871.5264294762164L1440.2683429140598,955.5022389348596L1572.5610585976392,939.0886835195124Z" fill="#82091d" stroke="#82091d"></path><path d="M1470.6639750860631,871.5264294762164L1572.5610585976392,939.0886835195124L1560.6927951425314,767.1524090040475Z" fill="#94091d" stroke="#94091d"></path><path d="M1560.6927951425314,767.1524090040475L1572.5610585976392,939.0886835195124L1672.3834532964975,947.849195105955Z" fill="#84061c" stroke="#84061c"></path><path d="M1560.6927951425314,767.1524090040475L1672.3834532964975,947.849195105955L1751.905300905928,796.6638262756169Z" fill="#8c091a" stroke="#8c091a"></path><path d="M1751.905300905928,796.6638262756169L1672.3834532964975,947.849195105955L1829.0487745497376,940.5507899355143Z" fill="#6b0119" stroke="#6b0119"></path><path d="M1751.905300905928,796.6638262756169L1829.0487745497376,940.5507899355143L1889.8779167979956,767.0839954353869Z" fill="#760518" stroke="#760518"></path><path d="M1889.8779167979956,767.0839954353869L1829.0487745497376,940.5507899355143L2022.0642577763647,797.5656537618488Z" fill="#690516" stroke="#690516"></path><path d="M2022.0642577763647,797.5656537618488L1829.0487745497376,940.5507899355143L2053.8827726617455,968.7589295580983Z" fill="#4b0015" stroke="#4b0015"></path><path d="M2022.0642577763647,797.5656537618488L2053.8827726617455,968.7589295580983L2116.7762199416757,829.177391929552Z" fill="#4a0013" stroke="#4a0013"></path><path d="M2116.7762199416757,829.177391929552L2053.8827726617455,968.7589295580983L2138.5204159934074,989.0761940181255Z" fill="#2f0013" stroke="#2f0013"></path><path d="M-74.83986482955515,1023.8156189024448L-30.167670557275414,1112.43746727705L111.58283768221736,959.9493548925966Z" fill="#847b8a" stroke="#847b8a"></path><path d="M111.58283768221736,959.9493548925966L-30.167670557275414,1112.43746727705L102.97552336938679,1122.7248272672296Z" fill="#807886" stroke="#807886"></path><path d="M111.58283768221736,959.9493548925966L102.97552336938679,1122.7248272672296L180.1637899875641,1073.9348660968244Z" fill="#7f7581" stroke="#7f7581"></path><path d="M111.58283768221736,959.9493548925966L180.1637899875641,1073.9348660968244L260.0815061107278,985.8761513326317Z" fill="#8c727d" stroke="#8c727d"></path><path d="M260.0815061107278,985.8761513326317L180.1637899875641,1073.9348660968244L365.0177141558379,1109.773347331211Z" fill="#7f6c76" stroke="#7f6c76"></path><path d="M260.0815061107278,985.8761513326317L365.0177141558379,1109.773347331211L393.6938067153096,936.2876033876091Z" fill="#8a676e" stroke="#8a676e"></path><path d="M393.6938067153096,936.2876033876091L365.0177141558379,1109.773347331211L526.2170866224915,997.6195558346808Z" fill="#895f64" stroke="#895f64"></path><path d="M526.2170866224915,997.6195558346808L365.0177141558379,1109.773347331211L575.046540889889,1115.1083467528224Z" fill="#7e5a5e" stroke="#7e5a5e"></path><path d="M526.2170866224915,997.6195558346808L575.046540889889,1115.1083467528224L647.4505621567369,1116.9291856884956Z" fill="#7e5154" stroke="#7e5154"></path><path d="M526.2170866224915,997.6195558346808L647.4505621567369,1116.9291856884956L729.3934477027506,966.9989192392677Z" fill="#844c4e" stroke="#844c4e"></path><path d="M729.3934477027506,966.9989192392677L647.4505621567369,1116.9291856884956L827.3829571902752,1109.4588196557015Z" fill="#7e4345" stroke="#7e4345"></path><path d="M729.3934477027506,966.9989192392677L827.3829571902752,1109.4588196557015L801.6684807278216,983.2167249452323Z" fill="#863f40" stroke="#863f40"></path><path d="M801.6684807278216,983.2167249452323L827.3829571902752,1109.4588196557015L995.138734029606,934.5881520677358Z" fill="#8a3738" stroke="#8a3738"></path><path d="M995.138734029606,934.5881520677358L827.3829571902752,1109.4588196557015L1033.570586135611,1106.0243297740817Z" fill="#7c2f33" stroke="#7c2f33"></path><path d="M995.138734029606,934.5881520677358L1033.570586135611,1106.0243297740817L1070.4118902795017,1067.3775997851044Z" fill="#7d262d" stroke="#7d262d"></path><path d="M995.138734029606,934.5881520677358L1070.4118902795017,1067.3775997851044L1156.7947530280799,920.146726956591Z" fill="#91222b" stroke="#91222b"></path><path d="M1156.7947530280799,920.146726956591L1070.4118902795017,1067.3775997851044L1326.1131880246103,1136.3434817735106Z" fill="#731825" stroke="#731825"></path><path d="M1156.7947530280799,920.146726956591L1326.1131880246103,1136.3434817735106L1299.9990628100932,916.8229679670185Z" fill="#7e1223" stroke="#7e1223"></path><path d="M1299.9990628100932,916.8229679670185L1326.1131880246103,1136.3434817735106L1373.6327887047082,1129.9705868493766Z" fill="#660d20" stroke="#660d20"></path><path d="M1299.9990628100932,916.8229679670185L1373.6327887047082,1129.9705868493766L1440.2683429140598,955.5022389348596Z" fill="#720c20" stroke="#720c20"></path><path d="M1440.2683429140598,955.5022389348596L1373.6327887047082,1129.9705868493766L1544.7596988268197,1136.5464198589325Z" fill="#5c0a1e" stroke="#5c0a1e"></path><path d="M1440.2683429140598,955.5022389348596L1544.7596988268197,1136.5464198589325L1572.5610585976392,939.0886835195124Z" fill="#62091d" stroke="#62091d"></path><path d="M1572.5610585976392,939.0886835195124L1544.7596988268197,1136.5464198589325L1672.3834532964975,947.849195105955Z" fill="#5a071c" stroke="#5a071c"></path><path d="M1672.3834532964975,947.849195105955L1544.7596988268197,1136.5464198589325L1731.4239460788667,1158.6371851433069Z" fill="#46051b" stroke="#46051b"></path><path d="M1672.3834532964975,947.849195105955L1731.4239460788667,1158.6371851433069L1829.0487745497376,940.5507899355143Z" fill="#430219" stroke="#430219"></path><path d="M1829.0487745497376,940.5507899355143L1731.4239460788667,1158.6371851433069L1892.8214156348258,1092.75680154562Z" fill="#2f0018" stroke="#2f0018"></path><path d="M1829.0487745497376,940.5507899355143L1892.8214156348258,1092.75680154562L2053.8827726617455,968.7589295580983Z" fill="#2f0016" stroke="#2f0016"></path><path d="M2053.8827726617455,968.7589295580983L1892.8214156348258,1092.75680154562L2036.133761163801,1162.6209248229861Z" fill="#170014" stroke="#170014"></path><path d="M2053.8827726617455,968.7589295580983L2036.133761163801,1162.6209248229861L2138.5204159934074,989.0761940181255Z" fill="#0d0013" stroke="#0d0013"></path><path d="M2138.5204159934074,989.0761940181255L2036.133761163801,1162.6209248229861L2160.6186315603554,1132.85560246557Z" fill="#060012" stroke="#060012"></path><path d="M102.97552336938679,1122.7248272672296L1731.4239460788667,1158.6371851433069L1326.1131880246103,1136.3434817735106Z" fill="#79242c" stroke="#79242c"></path><path d="M102.97552336938679,1122.7248272672296L1326.1131880246103,1136.3434817735106L647.4505621567369,1116.9291856884956Z" fill="#7e4749" stroke="#7e4749"></path><path d="M102.97552336938679,1122.7248272672296L647.4505621567369,1116.9291856884956L575.046540889889,1115.1083467528224Z" fill="#7e5e63" stroke="#7e5e63"></path><path d="M102.97552336938679,1122.7248272672296L575.046540889889,1115.1083467528224L365.0177141558379,1109.773347331211Z" fill="#7f666d" stroke="#7f666d"></path><path d="M102.97552336938679,1122.7248272672296L365.0177141558379,1109.773347331211L180.1637899875641,1073.9348660968244Z" fill="#7f717b" stroke="#7f717b"></path><path d="M647.4505621567369,1116.9291856884956L1326.1131880246103,1136.3434817735106L827.3829571902752,1109.4588196557015Z" fill="#7d3134" stroke="#7d3134"></path><path d="M827.3829571902752,1109.4588196557015L1326.1131880246103,1136.3434817735106L1033.570586135611,1106.0243297740817Z" fill="#79232b" stroke="#79232b"></path><path d="M1033.570586135611,1106.0243297740817L1326.1131880246103,1136.3434817735106L1070.4118902795017,1067.3775997851044Z" fill="#751c27" stroke="#751c27"></path><path d="M1326.1131880246103,1136.3434817735106L1731.4239460788667,1158.6371851433069L1544.7596988268197,1136.5464198589325Z" fill="#55081d" stroke="#55081d"></path><path d="M1326.1131880246103,1136.3434817735106L1544.7596988268197,1136.5464198589325L1373.6327887047082,1129.9705868493766Z" fill="#5f0b1f" stroke="#5f0b1f"></path><path d="M1731.4239460788667,1158.6371851433069L2036.133761163801,1162.6209248229861L1892.8214156348258,1092.75680154562Z" fill="#250016" stroke="#250016"></path></g></svg>